<svg height="72" viewBox="0 0 56 56" width="72" xmlns="http://www.w3.org/2000/svg"><g fill="none" fill-rule="evenodd" transform="translate(5 6)"><g stroke="#2088ff" stroke-linecap="round" stroke-linejoin="round" stroke-width="2"><path d="m10.6992218 3c.3172348 1.12165305.5731259 1.37177476 1.7106143 1.67815222-1.1357357.31416671-1.3889978.56601936-1.6992219 1.69026883-.3181111-1.12165305-.5731258-1.37264023-1.7106142-1.67901769 1.1348593-.31330123 1.3889977-.56601936 1.6992218-1.68940336z"/><path d="m36.6992218 3c.3172348 1.12165305.5731259 1.37177476 1.7106143 1.67815222-1.1357357.31416671-1.3889978.56601936-1.6992219 1.69026883-.3181111-1.12165305-.5731258-1.37264023-1.7106142-1.67901769 1.1348593-.31330123 1.3889977-.56601936 1.6992218-1.68940336z"/><path d="m24.0224609 0c.3172349 1.12165305.5731259 1.37177476 1.7106143 1.67815222-1.1357357.31416671-1.3889978.56601936-1.6992219 1.69026883-.3181111-1.12165305-.5731258-1.37264023-1.7106142-1.67901769 1.1348594-.31330123 1.3889977-.56601936 1.6992218-1.68940336z"/></g><g fill-rule="nonzero" transform="translate(0 4)"><path d="m33.9191813 9.19474798c3.7245985-2.12983199 6.5910235-3.19474798 8.5992749-3.19474798.5306572 0 1.4518638.1641204 1.9513526.65295268s.5723454.74140705.7115592 1.13999564c.7335437 2.10023918 1.5615172 6.31749588-.0787761 9.28564918 8.7673284 25.3811-15.5122197 24.9206814-21.207039 24.9206814s-29.74529254.4557992-21.03704058-24.9079471c-1.11175538-2.2007678-1.4036822-5.1193763-.12093691-9.28416004.8631733-2.8025284 4.64673104-2.34116297 11.35067319 1.38409629 3.1761671-1.2066306 6.4433074-1.8099459 9.8014207-1.8099459 3.3581134 0 6.701284.60447528 10.029512 1.81342583z" stroke="#79b8ff" stroke-linecap="round" stroke-linejoin="round" stroke-width="2" transform="matrix(-1 0 0 1 47.969962 0)"/><path d="m10.3232762 40.0739632c-2.44227212-1.0193083-2.93072655-3.3077214-2.93072655-4.8342079s.48845443-2.4498806.97690885-3.919809.39076354-2.2811641-.97690885-5.710997c-1.36767238-3.4298329.97690885-7.5349861 4.88454425-7.5349861 3.9076353 0 7.0879329 3.0053341 11.7229061 2.9564844m0 0c4.6349732.0488497 7.8152708-2.9564844 11.7229061-2.9564844 3.9076354 0 6.2522166 4.1051532 4.8845442 7.5349861-1.3676723 3.4298329-1.4653632 4.2410686-.9769088 5.710997s.9769088 2.3933225.9769088 3.919809-.4884544 3.8148996-2.9307265 4.8342079" stroke="#79b8ff" stroke-linecap="round" stroke-linejoin="round" stroke-width="2"/><g fill="#2088ff"><circle cx="12" cy="30" r="1"/><circle cx="13" cy="28" r="1"/><circle cx="15" cy="28" r="1"/><circle cx="23" cy="35" r="1"/><circle cx="25" cy="35" r="1"/><circle cx="17" cy="28" r="1"/><circle cx="31" cy="28" r="1"/><circle cx="33" cy="28" r="1"/><circle cx="35" cy="28" r="1"/><circle cx="12" cy="32" r="1"/><circle cx="19" cy="30" r="1"/><circle cx="19" cy="32" r="1"/><circle cx="29" cy="30" r="1"/><circle cx="29" cy="32" r="1"/><circle cx="36" cy="30" r="1"/><circle cx="36" cy="32" r="1"/></g></g></g></svg>
